# xmcd
#
# Track frame offsets:
#	150
#	24495
#	45762
#	65529
#	84579
#	100098
#	117927
#	138114
#	156816
#	181941
#	208335
#	224277
#	240414
#	253782
#	265986
#
# Disc length: 3891 seconds
#
# Revision: 3
# Processed by: cddbd v1.5.2PL0 Copyright (c) Steve Scherf et al.
# Submitted via: EasyCDDAExtractor 16.0.6.1
#
DISCID=c90f310f
DTITLE=Various Artist - Męskie Granie CD 1
DYEAR=2010
DGENRE=
TTITLE0=Smolik - Attitude 1
TTITLE1=Smolik - 50 trees
TTITLE2=Abradab - Liwing la wida zajebiste
TTITLE3=Abradab - Nieśmiertelność (muzyka daje)
TTITLE4=Abradab - Poprawny wokal
TTITLE5=Maleńczuk and Waglewski - Komu dzwonią
TTITLE6=Maleńczuk and Waglewski - Koledzy
TTITLE7=Maleńczuk and Waglewski - Praca na saksach
TTITLE8=Mitch and Mitch - Two Fingers Up And Walk
TTITLE9=Pogodno - Ale
TTITLE10=Pogodno - Magnes
TTITLE11=Fisz Emade - Serce
TTITLE12=Fisz Emade - Huragan (Intro)
TTITLE13=Kim Nowak - Sierpień
TTITLE14=Kim Nowak - Pistolet
EXTD=
EXTT0=
EXTT1=
EXTT2=
EXTT3=
EXTT4=
EXTT5=
EXTT6=
EXTT7=
EXTT8=
EXTT9=
EXTT10=
EXTT11=
EXTT12=
EXTT13=
EXTT14=
PLAYORDER=
